<!--?xml version="1.0" encoding="utf-8"?-->
<!-- Generator: Adobe Illustrator 18.1.1, SVG Export Plug-In . SVG Version: 6.00 Build 0)  -->

<svg version="1.1" id="_x32_" xmlns="http://www.w3.org/2000/svg" xmlns:xlink="http://www.w3.org/1999/xlink" x="0px" y="0px" viewBox="0 0 512 512" style="width: 256px; height: 256px; opacity: 1;" xml:space="preserve">
<style type="text/css">
	.st0{fill:#4B4B4B;}
</style>
<g>
	<path class="st0" d="M411.844,205.916c1.051-0.924,2.513-1.731,4.863-2.353c2.32-0.605,5.433-0.942,8.993-0.942h30.446
		c15.377,0.017,29.425-6.27,39.486-16.356c10.094-10.052,16.372-24.105,16.368-39.486V78.625
		c0.004-15.389-6.274-29.408-16.368-39.503c-10.061-10.076-24.109-16.347-39.486-16.347H225.703l-1.202,0.236
		c-10.25,2.017-18.835,6.858-25.618,12.582c-10.204,8.631-16.759,19.137-21.046,27.492c-1.147,2.252-2.105,4.32-2.925,6.212h-20.881
		v10.994h-39.327c-6.232,0-11.27,9.338-11.27,15.549H15.826L0,115.009l15.184,19.902h88.25v5.648c0,6.236,5.038,11.279,11.27,11.279
		h39.327v12.456h23.898c3.791,4.152,10.015,10.658,17.457,17.314c6.14,5.464,13.078,11.044,20.516,15.515
		c3.724,2.227,7.586,4.202,11.683,5.682c4.089,1.48,8.447,2.522,13.183,2.522c3.644,0,7.598,0,11.654,0v32.46
		c0,6.908,5.589,12.489,12.489,12.489h19.39v13.583l8.993,2.622h0.008l0.013,0.017c0.227,0.042,3.433,1.21,5.921,3.076
		c1.265,0.95,2.32,2,2.958,2.975c0.643,0.975,0.962,1.783,1.092,3.009c0.433,4.808,1.454,9.086,2.883,12.851
		c2.135,5.64,5.22,9.977,7.993,13.052c1.387,1.53,2.681,2.766,3.706,3.715c0.82,0.748,1.442,1.312,1.761,1.614l0.063,0.109
		c0.298,0.522,0.912,2.093,1.513,4.413c0.614,2.287,1.252,5.337,1.954,8.867c0.332,1.672,0.454,3.051,0.454,4.127
		c0,1.681-0.273,2.672-0.5,3.244c-0.378,0.892-0.592,1.008-1.013,1.328c-0.416,0.252-1.189,0.513-2.135,0.513
		c-4.745,0-12.75,0-19.575,0c-6.82,0-12.444,0-12.456,0c-10.842-0.025-20.781,4.438-27.875,11.54
		c-7.119,7.111-11.552,17.037-11.548,27.879v80.997c-0.004,10.843,4.429,20.76,11.548,27.862
		c7.094,7.119,17.032,11.557,27.875,11.557h178.632c10.842,0,20.781-4.438,27.883-11.557c7.106-7.102,11.544-17.019,11.54-27.862
		V368.81c0.004-10.842-4.433-20.768-11.54-27.879c-7.102-7.102-17.041-11.564-27.883-11.54h-2.193
		c-6.052,0-11.304-4.219-12.608-10.136l-3.622-16.456c-1.748-8.968-3.618-17.508-6.455-25.895
		c-2.849-8.422-6.736-16.675-12.343-24.525l-18.124-25.45c-2.194-3.076-3.303-6.69-3.303-10.321c0-2.79,0.652-5.564,1.979-8.144
		C410.516,207.261,411.126,206.538,411.844,205.916z M437.219,48.074h18.927c8.477,0,16.037,3.404,21.601,8.959
		c5.551,5.564,8.942,13.12,8.951,21.592v68.154c-0.008,8.472-3.4,16.036-8.951,21.601c-5.564,5.547-13.124,8.943-21.601,8.959
		h-18.927V48.074z M390.614,241.594l18.125,25.458c3.98,5.598,6.732,11.347,8.993,17.978c2.248,6.623,3.942,14.146,5.618,22.802
		l0.034,0.152l3.681,16.708c3.862,17.532,19.378,30.005,37.309,30.005h2.193c3.946,0,7.396,1.546,9.985,4.119
		c2.584,2.605,4.135,6.052,4.139,9.993v26.072h-206.88V368.81c0.004-3.942,1.555-7.388,4.135-9.993
		c2.593-2.572,6.047-4.119,9.989-4.119c0.012,0,5.636,0,12.456,0c6.825,0,14.83,0,19.575,0c3.446,0,6.946-0.588,10.35-1.84
		c5.089-1.858,10.006-5.388,13.414-10.473c3.446-5.051,5.203-11.396,5.186-18.079c0-2.942-0.324-5.959-0.95-9.077
		c-0.958-4.774-1.84-9.144-3.164-13.397c-0.668-2.118-1.454-4.236-2.546-6.379c-1.093-2.127-2.509-4.346-4.547-6.372
		c-1.45-1.42-2.488-2.286-3.438-3.194c-1.399-1.361-2.513-2.622-3.513-4.437c-0.975-1.79-1.9-4.203-2.278-8.187
		c-0.534-6.127-2.891-11.522-5.829-15.616c-4.097-5.657-9.002-9.111-13.048-11.405v-66.214H296.95c0,0-33.842,0-56.182,0
		c-0.849,0.025-2.471-0.235-4.555-1.009c-3.673-1.277-8.598-4.134-13.524-7.757c-7.434-5.422-14.969-12.481-20.478-18.113
		c-2.765-2.807-5.052-5.287-6.606-7.01c-0.79-0.882-1.395-1.563-1.794-2.017l-0.446-0.521l-0.096-0.118l-0.021-0.016l-3.786-4.455
		h-10.128V94.577H193l2.711-8.968l0.126-0.378c0.63-1.975,3.925-11.086,9.846-19.583c2.937-4.295,6.501-8.38,10.476-11.523
		c3.744-2.933,7.774-4.993,12.309-6.051h186.616v130.022c-3.308,0.538-6.652,1.362-9.993,2.723
		c-3.467,1.395-6.909,3.395-9.976,6.111c-3.068,2.69-5.716,6.085-7.703,9.943c-3.203,6.202-4.796,12.993-4.783,19.734
		C382.616,225.398,385.319,234.156,390.614,241.594z"></path>
</g>
</svg>
