<!--?xml version="1.0" encoding="utf-8"?-->
<!-- Generator: Adobe Illustrator 18.1.1, SVG Export Plug-In . SVG Version: 6.00 Build 0)  -->

<svg version="1.1" id="_x32_" xmlns="http://www.w3.org/2000/svg" xmlns:xlink="http://www.w3.org/1999/xlink" x="0px" y="0px" viewBox="0 0 512 512" style="width: 256px; height: 256px; opacity: 1;" xml:space="preserve">
<style type="text/css">
	.st0{fill:#4B4B4B;}
</style>
<g>
	<path class="st0" d="M126.428,96.681v36.261c0,4.597,3.732,8.32,8.337,8.32h27.547V88.359h-27.547
		C130.159,88.359,126.428,92.091,126.428,96.681z"></path>
	<polygon class="st0" points="0,113.527 15.708,131.846 114.666,131.846 114.666,95.199 15.708,95.199 	"></polygon>
	<path class="st0" d="M292.934,203.77h-37.109v34.027c0,7.148,5.795,12.944,12.942,12.944h24.166V203.77z"></path>
	<path class="st0" d="M468.24,32.529h-30.269v156.585h30.269c24.174,0,43.76-19.586,43.76-43.76V76.306
		C512,52.132,492.414,32.529,468.24,32.529z"></path>
	<path class="st0" d="M478.803,343.165h-2.226c-12.156,0-22.668-8.441-25.287-20.314l-3.698-16.778
		c-3.484-17.942-7.234-32.675-16.949-46.303l-18.362-25.792c-6.694-9.398-7.584-21.751-2.294-31.998
		c3.287-6.378,8.612-9.793,14.929-11.463V32.529h-188.9c-31.553,6.18-43.897,47.124-43.897,47.124h-17.146v70.631h17.146
		c0,0,35.277,41.569,57.91,41.569c22.634,0,56.926,0,56.926,0v62.506c0,0,17.805,5.214,19.184,20.297
		c1.369,15.083,9.621,20.485,13.045,23.926c3.433,3.424,4.991,10.426,6.883,19.937c3.441,17.146-6.198,24.645-15.802,24.645
		c-9.597,0-32.444,0-32.444,0c-14.989,0-27.127,12.146-27.127,27.127v12.541h235.219v-12.541
		C505.913,355.312,493.775,343.165,478.803,343.165z"></path>
	<path class="st0" d="M270.694,452.343c0,14.981,12.138,27.127,27.127,27.127h180.982c14.972,0,27.11-12.146,27.11-27.127v-57.337
		H270.694V452.343z"></path>
</g>
</svg>
